<mxfile host="app.diagrams.net" agent="Mozilla/5.0 (Windows NT 10.0; Win64; x64) AppleWebKit/537.36 (KHTML, like Gecko) Chrome/136.0.0.0 Safari/537.36" version="27.0.2">
  <diagram name="Page-1" id="7Z0pR5L1X9aUNx0Jkw4X">
    <mxGraphModel dx="1977" dy="1194" grid="0" gridSize="10" guides="1" tooltips="1" connect="1" arrows="1" fold="1" page="0" pageScale="1" pageWidth="827" pageHeight="1169" math="0" shadow="0">
      <root>
        <mxCell id="0" />
        <mxCell id="1" parent="0" />
        <mxCell id="NGKQew291F_jkFrDn3E5-2" value="" style="rounded=0;whiteSpace=wrap;html=1;" vertex="1" parent="1">
          <mxGeometry x="-280" y="-64" width="1022" height="573" as="geometry" />
        </mxCell>
        <mxCell id="NGKQew291F_jkFrDn3E5-3" value="&lt;h4 class=&quot;&quot; data-end=&quot;614&quot; data-start=&quot;587&quot;&gt;&lt;strong data-end=&quot;614&quot; data-start=&quot;595&quot;&gt;User Management&lt;/strong&gt;&lt;/h4&gt;&lt;ul data-end=&quot;751&quot; data-start=&quot;615&quot;&gt;&lt;li class=&quot;&quot; data-end=&quot;640&quot; data-start=&quot;615&quot;&gt;&lt;p class=&quot;&quot; data-end=&quot;640&quot; data-start=&quot;617&quot;&gt;Sign up as Guest/Host&lt;/p&gt;&lt;/li&gt;&lt;li class=&quot;&quot; data-end=&quot;669&quot; data-start=&quot;641&quot;&gt;&lt;p class=&quot;&quot; data-end=&quot;669&quot; data-start=&quot;643&quot;&gt;Secure Auth (JWT, OAuth)&lt;/p&gt;&lt;/li&gt;&lt;li class=&quot;&quot; data-end=&quot;699&quot; data-start=&quot;670&quot;&gt;&lt;p class=&quot;&quot; data-end=&quot;699&quot; data-start=&quot;672&quot;&gt;Login with Email/Password&lt;/p&gt;&lt;/li&gt;&lt;li class=&quot;&quot; data-end=&quot;751&quot; data-start=&quot;700&quot;&gt;&lt;p class=&quot;&quot; data-end=&quot;751&quot; data-start=&quot;702&quot;&gt;Profile Update (Photo, Contact Info, Preferences)&lt;/p&gt;&lt;/li&gt;&lt;/ul&gt;" style="rounded=0;whiteSpace=wrap;html=1;" vertex="1" parent="1">
          <mxGeometry x="-225" y="-12" width="266" height="181" as="geometry" />
        </mxCell>
        <mxCell id="NGKQew291F_jkFrDn3E5-4" value="&lt;h4 class=&quot;&quot; data-end=&quot;782&quot; data-start=&quot;753&quot;&gt;&lt;strong data-end=&quot;782&quot; data-start=&quot;761&quot;&gt;Property Listings&lt;/strong&gt;&lt;/h4&gt;&lt;ul data-end=&quot;876&quot; data-start=&quot;783&quot;&gt;&lt;li class=&quot;&quot; data-end=&quot;813&quot; data-start=&quot;783&quot;&gt;&lt;p class=&quot;&quot; data-end=&quot;813&quot; data-start=&quot;785&quot;&gt;Add/Edit/Delete Properties&lt;/p&gt;&lt;/li&gt;&lt;li class=&quot;&quot; data-end=&quot;876&quot; data-start=&quot;814&quot;&gt;&lt;p class=&quot;&quot; data-end=&quot;876&quot; data-start=&quot;816&quot;&gt;Title, Description, Location, Price, Amenities, Availability&lt;/p&gt;&lt;/li&gt;&lt;/ul&gt;" style="rounded=0;whiteSpace=wrap;html=1;" vertex="1" parent="1">
          <mxGeometry x="-225" y="197" width="267" height="155" as="geometry" />
        </mxCell>
        <mxCell id="NGKQew291F_jkFrDn3E5-5" value="&lt;h4 class=&quot;&quot; data-end=&quot;908&quot; data-start=&quot;878&quot;&gt;&lt;strong data-end=&quot;908&quot; data-start=&quot;886&quot;&gt;Search &amp;amp; Filtering&lt;/strong&gt;&lt;/h4&gt;&lt;ul data-end=&quot;992&quot; data-start=&quot;909&quot;&gt;&lt;li class=&quot;&quot; data-end=&quot;956&quot; data-start=&quot;909&quot;&gt;&lt;p class=&quot;&quot; data-end=&quot;956&quot; data-start=&quot;911&quot;&gt;By location, price, guest number, amenities&lt;/p&gt;&lt;/li&gt;&lt;li class=&quot;&quot; data-end=&quot;992&quot; data-start=&quot;957&quot;&gt;&lt;p class=&quot;&quot; data-end=&quot;992&quot; data-start=&quot;959&quot;&gt;Add pagination for large datasets&lt;/p&gt;&lt;/li&gt;&lt;/ul&gt;" style="rounded=0;whiteSpace=wrap;html=1;" vertex="1" parent="1">
          <mxGeometry x="86" y="-11" width="305" height="130" as="geometry" />
        </mxCell>
        <mxCell id="NGKQew291F_jkFrDn3E5-6" value="&lt;h4 class=&quot;&quot; data-end=&quot;1024&quot; data-start=&quot;994&quot;&gt;&lt;strong data-end=&quot;1024&quot; data-start=&quot;1002&quot;&gt;Booking Management&lt;/strong&gt;&lt;/h4&gt;&lt;ul data-end=&quot;1174&quot; data-start=&quot;1025&quot;&gt;&lt;li class=&quot;&quot; data-end=&quot;1051&quot; data-start=&quot;1025&quot;&gt;&lt;p class=&quot;&quot; data-end=&quot;1051&quot; data-start=&quot;1027&quot;&gt;Book property by dates&lt;/p&gt;&lt;/li&gt;&lt;li class=&quot;&quot; data-end=&quot;1079&quot; data-start=&quot;1052&quot;&gt;&lt;p class=&quot;&quot; data-end=&quot;1079&quot; data-start=&quot;1054&quot;&gt;Prevent double booking&lt;/p&gt;&lt;/li&gt;&lt;li class=&quot;&quot; data-end=&quot;1117&quot; data-start=&quot;1080&quot;&gt;&lt;p class=&quot;&quot; data-end=&quot;1117&quot; data-start=&quot;1082&quot;&gt;Cancel bookings (guests or hosts)&lt;/p&gt;&lt;/li&gt;&lt;li class=&quot;&quot; data-end=&quot;1174&quot; data-start=&quot;1118&quot;&gt;&lt;p class=&quot;&quot; data-end=&quot;1174&quot; data-start=&quot;1120&quot;&gt;Track status (pending, confirmed, canceled, completed)&lt;/p&gt;&lt;/li&gt;&lt;/ul&gt;" style="rounded=0;whiteSpace=wrap;html=1;" vertex="1" parent="1">
          <mxGeometry x="89" y="157" width="298" height="206" as="geometry" />
        </mxCell>
        <mxCell id="NGKQew291F_jkFrDn3E5-7" value="&lt;h4 class=&quot;&quot; data-end=&quot;1207&quot; data-start=&quot;1176&quot;&gt;&lt;strong data-end=&quot;1207&quot; data-start=&quot;1184&quot;&gt;Payment Integration&lt;/strong&gt;&lt;/h4&gt;&lt;ul data-end=&quot;1309&quot; data-start=&quot;1208&quot;&gt;&lt;li class=&quot;&quot; data-end=&quot;1243&quot; data-start=&quot;1208&quot;&gt;&lt;p class=&quot;&quot; data-end=&quot;1243&quot; data-start=&quot;1210&quot;&gt;Secure payments (Stripe/PayPal)&lt;/p&gt;&lt;/li&gt;&lt;li class=&quot;&quot; data-end=&quot;1277&quot; data-start=&quot;1244&quot;&gt;&lt;p class=&quot;&quot; data-end=&quot;1277&quot; data-start=&quot;1246&quot;&gt;Guest payments &amp;amp; Host payout&lt;/p&gt;&lt;/li&gt;&lt;li class=&quot;&quot; data-end=&quot;1309&quot; data-start=&quot;1278&quot;&gt;&lt;p class=&quot;&quot; data-end=&quot;1309&quot; data-start=&quot;1280&quot;&gt;Multiple currencies supported&lt;/p&gt;&lt;/li&gt;&lt;/ul&gt;" style="rounded=0;whiteSpace=wrap;html=1;" vertex="1" parent="1">
          <mxGeometry x="419" y="-10" width="264" height="161" as="geometry" />
        </mxCell>
        <mxCell id="NGKQew291F_jkFrDn3E5-8" value="&lt;h4 class=&quot;&quot; data-end=&quot;1340&quot; data-start=&quot;1311&quot;&gt;&lt;strong data-end=&quot;1340&quot; data-start=&quot;1319&quot;&gt;Reviews &amp;amp; Ratings&lt;/strong&gt;&lt;/h4&gt;&lt;ul data-end=&quot;1414&quot; data-start=&quot;1341&quot;&gt;&lt;li class=&quot;&quot; data-end=&quot;1369&quot; data-start=&quot;1341&quot;&gt;&lt;p class=&quot;&quot; data-end=&quot;1369&quot; data-start=&quot;1343&quot;&gt;Guests review properties&lt;/p&gt;&lt;/li&gt;&lt;li class=&quot;&quot; data-end=&quot;1387&quot; data-start=&quot;1370&quot;&gt;&lt;p class=&quot;&quot; data-end=&quot;1387&quot; data-start=&quot;1372&quot;&gt;Hosts respond&lt;/p&gt;&lt;/li&gt;&lt;li class=&quot;&quot; data-end=&quot;1414&quot; data-start=&quot;1388&quot;&gt;&lt;p class=&quot;&quot; data-end=&quot;1414&quot; data-start=&quot;1390&quot;&gt;Link reviews to bookings&lt;/p&gt;&lt;/li&gt;&lt;/ul&gt;" style="rounded=0;whiteSpace=wrap;html=1;" vertex="1" parent="1">
          <mxGeometry x="423.5" y="183" width="255" height="180" as="geometry" />
        </mxCell>
        <mxCell id="NGKQew291F_jkFrDn3E5-9" value="&lt;h4 class=&quot;&quot; data-end=&quot;1441&quot; data-start=&quot;1416&quot;&gt;&lt;strong data-end=&quot;1441&quot; data-start=&quot;1424&quot;&gt;Notifications&lt;/strong&gt;&lt;/h4&gt;&lt;ul data-end=&quot;1494&quot; data-start=&quot;1442&quot;&gt;&lt;li class=&quot;&quot; data-end=&quot;1494&quot; data-start=&quot;1442&quot;&gt;&lt;p class=&quot;&quot; data-end=&quot;1494&quot; data-start=&quot;1444&quot;&gt;Email/In-app for bookings, cancellations, payments&lt;/p&gt;&lt;/li&gt;&lt;/ul&gt;" style="rounded=0;whiteSpace=wrap;html=1;" vertex="1" parent="1">
          <mxGeometry x="261" y="397" width="417.5" height="81" as="geometry" />
        </mxCell>
        <mxCell id="NGKQew291F_jkFrDn3E5-10" value="&lt;h4 class=&quot;&quot; data-end=&quot;1523&quot; data-start=&quot;1496&quot;&gt;&lt;strong data-end=&quot;1523&quot; data-start=&quot;1504&quot;&gt;Admin Dashboard&lt;/strong&gt;&lt;/h4&gt;&lt;ul data-end=&quot;1574&quot; data-start=&quot;1524&quot;&gt;&lt;li class=&quot;&quot; data-end=&quot;1574&quot; data-start=&quot;1524&quot;&gt;&lt;p class=&quot;&quot; data-end=&quot;1574&quot; data-start=&quot;1526&quot;&gt;View/manage: users, listings, bookings, payments&lt;/p&gt;&lt;/li&gt;&lt;/ul&gt;" style="rounded=0;whiteSpace=wrap;html=1;" vertex="1" parent="1">
          <mxGeometry x="-223" y="398" width="411" height="80" as="geometry" />
        </mxCell>
      </root>
    </mxGraphModel>
  </diagram>
</mxfile>
